<?xml version="1.0" encoding="UTF-8" standalone="no"?>
<!-- Created with Inkscape (http://www.inkscape.org/) -->

<svg
   width="512"
   height="512"
   viewBox="0 0 512 512"
   version="1.1"
   id="svg5"
   inkscape:version="1.1.1 (3bf5ae0d25, 2021-09-20)"
   sodipodi:docname="Server Nitro Boosting.svg"
   xmlns:inkscape="http://www.inkscape.org/namespaces/inkscape"
   xmlns:sodipodi="http://sodipodi.sourceforge.net/DTD/sodipodi-0.dtd"
   xmlns="http://www.w3.org/2000/svg"
   xmlns:svg="http://www.w3.org/2000/svg">
  <sodipodi:namedview
     id="namedview7"
     pagecolor="#ffffff"
     bordercolor="#111111"
     borderopacity="1"
     inkscape:pageshadow="0"
     inkscape:pageopacity="0"
     inkscape:pagecheckerboard="1"
     inkscape:document-units="px"
     showgrid="false"
     inkscape:zoom="1.4550781"
     inkscape:cx="220.60671"
     inkscape:cy="256"
     inkscape:window-width="1920"
     inkscape:window-height="1017"
     inkscape:window-x="-8"
     inkscape:window-y="-8"
     inkscape:window-maximized="1"
     inkscape:current-layer="layer1" />
  <defs
     id="defs2" />
  <g
     inkscape:label="Layer 1"
     inkscape:groupmode="layer"
     id="layer1">
    <path
       style="fill:#ffffff;stroke-width:1.1206"
       d="m 257.2116,461.02795 v -47.06871 l 34.09923,-34.08548 34.09923,-34.08548 31.73617,13.11924 c 17.4549,7.21557 32.34909,13.49925 33.09821,13.96373 0.89731,0.55635 -21.56616,23.77033 -65.8354,68.03494 l -67.19744,67.19045 z m -83.92049,-21.15592 -66.55115,-66.55862 4.918,-2.16547 c 2.7049,-1.19102 17.45115,-7.36943 32.76943,-13.72979 l 27.85142,-11.56431 34.07453,34.07451 34.07452,34.07453 -0.2928,46.21389 -0.29281,46.21387 z M 39.81468,483.97898 31.41016,468.29886 15.318003,459.48824 C 3.9501058,453.26419 -0.33301688,450.38905 0.72846277,449.69465 1.5548848,449.15403 8.7191553,445.13596 16.649055,440.76563 l 14.417987,-7.9461 8.72685,-16.00688 8.72685,-16.00687 2.791007,4.90271 c 1.535058,2.69651 5.591762,9.94544 9.014912,16.10875 l 6.223906,11.20603 15.20743,8.3053 c 8.364078,4.56791 15.207419,8.66892 15.207419,9.11335 0,0.44442 -6.933729,4.60774 -15.408287,9.25182 l -15.408287,8.44377 -7.507993,13.81975 C 47.552766,502.36679 49.55526,502.15175 39.81468,483.97898 Z M 216.02244,366.06037 c -32.73829,-32.7524 -32.77062,-32.78948 -32.77062,-37.58201 v -4.79727 l 62.31856,-63.27234 c 34.2752,-34.79979 62.67218,-63.27234 63.1044,-63.27234 0.4322,0 2.14085,1.41434 3.79699,3.14298 l 3.01116,3.14298 v 64.38033 64.38034 L 282.138,365.51408 248.79306,398.84512 Z M 100.32722,267.73438 c 0,-49.30652 0.40586,-89.64821 0.90192,-89.64821 0.49606,0 15.24599,5.95701 32.77763,13.2378 l 31.87571,13.23779 v 63.23365 63.23363 l -31.37687,13.09786 c -17.25729,7.20382 -32.00722,13.13337 -32.77763,13.17678 -1.10959,0.0625 -1.40076,-18.55571 -1.40076,-89.5693 z m 263.34163,76.37037 -31.93718,-13.22224 v -63.08383 -63.08383 l 31.93718,-13.28019 c 17.56544,-7.3041 32.56751,-13.29556 33.33793,-13.31434 1.10921,-0.027 1.40075,18.62434 1.40075,89.61406 0,70.98633 -0.29159,89.64242 -1.40075,89.62041 -0.77042,-0.0152 -15.77249,-5.97782 -33.33793,-13.25004 z m -180.38394,-56.95053 0.0331,-13.25653 50.30753,-50.98742 50.30754,-50.98742 6.50288,6.42856 6.50288,6.42858 -19.06617,19.34529 c -10.4864,10.63992 -36.06597,36.65684 -56.84351,57.81538 l -37.77733,38.47009 0.0331,-13.25653 z m -0.0331,-60.90607 v -24.08327 l 32.79116,-32.77702 32.79115,-32.77702 11.66912,11.70895 11.66911,11.70896 -30.37429,31.16061 c -16.70587,17.13834 -36.71298,37.45644 -44.46027,45.15133 l -14.08598,13.99072 z m -43.1432,-49.97473 c -17.25728,-7.12699 -31.74326,-13.30408 -32.19107,-13.72686 -0.44781,-0.42278 29.17812,-30.75783 65.83541,-67.411231 l 66.6496,-66.642549 v 46.788444 46.788426 l -33.70329,33.33113 c -18.53681,18.3321 -34.04315,33.44354 -34.45853,33.58097 -0.41539,0.13742 -14.87484,-5.58133 -32.13212,-12.70833 z M 291.10297,155.38718 257.21163,121.48217 V 74.427157 27.372122 l 67.20983,67.202839 c 52.82393,52.818419 66.83736,67.411289 65.46962,68.176709 -2.44218,1.36672 -63.32648,26.54052 -64.18979,26.54052 -0.38883,0 -15.95808,-15.25725 -34.59832,-33.90501 z m 150.0772,-19.88771 c -4.85944,-1.13366 -10.01349,-6.14671 -11.53261,-11.21711 -0.6641,-2.21653 -1.03105,-9.13569 -0.81546,-15.37591 0.32191,-9.31723 0.80511,-11.898594 2.70245,-14.437185 4.14376,-5.54426 8.06192,-7.712211 13.93829,-7.712211 5.87669,0 9.79511,2.168265 13.93829,7.712794 1.86715,2.498675 2.38544,5.133526 2.70131,13.732762 0.21498,5.85247 0.064,12.383 -0.33543,14.51231 -0.9058,4.82838 -6.36509,11.19277 -10.4331,12.16282 -1.68825,0.40257 -3.82597,0.90307 -4.75047,1.1122 -0.92449,0.20913 -3.36046,-0.0115 -5.41327,-0.49047 z M 387.47141,84.009852 c -2.00871,-1.251265 -4.65424,-3.918508 -5.87897,-5.927222 -4.49573,-7.373565 -1.81996,-17.454103 5.87897,-22.148207 3.11997,-1.902268 5.65901,-2.227377 17.42297,-2.230963 l 13.77079,-0.0045 4.58363,4.275569 c 3.91943,3.656011 4.66196,5.090584 5.12406,9.899852 0.60544,6.300846 -1.01,10.430099 -5.85273,14.960243 -2.82167,2.639546 -3.81579,2.820254 -17.19566,3.125719 -12.66123,0.28906 -14.59682,0.07755 -17.85306,-1.950812 z m 84.33559,1.111693 c -1.23266,-0.513224 -3.75402,-2.531452 -5.60301,-4.484949 -3.02692,-3.197999 -3.36181,-4.278103 -3.36181,-10.842582 0,-7.122909 0.10859,-7.392089 4.71917,-11.692749 l 4.71916,-4.401985 13.77079,0.0045 c 11.76396,0.0034 14.303,0.328695 17.42297,2.230963 10.43828,6.364294 10.63938,20.867817 0.38434,27.718628 -3.43186,2.29263 -5.09088,2.536675 -16.80904,2.472655 -7.15075,-0.03911 -14.0099,-0.490936 -15.24257,-1.004172 z M 439.25397,52.181581 c -4.59586,-2.080567 -9.2208,-7.783045 -10.09599,-12.448204 -0.39358,-2.097981 -0.53972,-8.602889 -0.32474,-14.455359 0.41973,-11.426661 1.62707,-14.297629 8.01976,-19.0704612 4.11496,-3.0722644 13.12472,-3.0722644 17.23968,0 6.92369,5.1692762 7.6289,7.2286482 7.6289,22.2781642 0,12.233776 -0.26861,14.202955 -2.31045,16.937774 -5.31141,7.114045 -13.38879,9.82215 -20.15716,6.758086 z"
       id="path836" />
  </g>
</svg>
